<svg width="22" height="22" viewBox="0 0 22 22" fill="none" xmlns="http://www.w3.org/2000/svg">
<path d="M17.6172 3.48476C17.557 3.50624 16.9941 4.04335 16.3668 4.6707L15.2195 5.81367L14.7555 5.61601C12.9637 4.86406 11.0859 4.64062 9.37148 4.96718C6.88359 5.44413 4.35273 6.93085 1.99804 9.29843C1.29765 10.0074 0.799211 10.5832 0.721867 10.7809C0.653117 10.9613 0.70468 11.2363 0.850774 11.4297C1.12577 11.8078 2.0496 12.7832 2.6039 13.2859C3.39023 13.9949 4.06054 14.5277 4.83398 15.0476C5.19062 15.284 5.4871 15.4859 5.49999 15.4988C5.50859 15.5074 5.07031 15.9629 4.5246 16.5129C3.9746 17.0629 3.50624 17.5656 3.48046 17.6301C3.40741 17.832 3.4289 18.0641 3.53632 18.223C3.74257 18.5324 4.07773 18.6398 4.3957 18.5023C4.47734 18.468 7.39921 15.5762 11.5242 11.4426C17.7719 5.19062 18.5152 4.43007 18.541 4.28398C18.6441 3.72968 18.1328 3.28281 17.6172 3.48476ZM11.5887 7.62695C11.7777 7.66132 12.0527 7.73867 12.1988 7.79882C12.4953 7.91484 12.8477 8.1082 12.8477 8.15546C12.8477 8.19413 8.19413 12.8476 8.15546 12.8476C8.1082 12.8476 7.91484 12.4996 7.79882 12.1988C7.34765 11.0559 7.57538 9.73671 8.3789 8.7871C9.18242 7.84179 10.4027 7.40351 11.5887 7.62695Z" fill="#C5C5C5"/>
<path d="M16.0145 8.88593L14.3945 10.5058L14.4203 10.8539C14.5105 11.9926 13.8789 13.2129 12.8562 13.8832C12.2848 14.257 11.7777 14.4074 11.0301 14.4117L10.4844 14.4203L9.3457 15.5547C8.71836 16.182 8.20703 16.7019 8.20703 16.7148C8.20703 16.7922 9.53047 17.0758 10.2008 17.1402C12.9336 17.4066 15.8297 16.3109 18.6699 13.9391C19.641 13.1269 21.0719 11.6445 21.2523 11.2664C21.3598 11.0344 21.3125 10.7851 21.1105 10.5187C20.8141 10.1277 19.9332 9.19101 19.4004 8.70976C18.9234 8.27147 17.8492 7.38632 17.6988 7.30468C17.6473 7.2746 17.2734 7.62694 16.0145 8.88593Z" fill="#C5C5C5"/>
</svg>
