<svg width="350" height="310" viewBox="0 0 350 310" fill="none" xmlns="http://www.w3.org/2000/svg">
<path d="M156.201 67.873C113.271 71.8086 73.1445 88.7012 42.2461 115.826C30.7617 125.937 18.5254 139.924 12.8516 149.43C9.36524 155.303 10.0488 157.361 19.8242 170.076C42.9297 200.289 78.1348 223.6 117.578 234.861C138.975 240.916 157.09 243.156 180.469 242.611C203.848 242.066 222.236 238.736 243.428 231.35C268.926 222.51 290.049 209.977 309.736 192.115C318.691 184.002 324.229 178.008 330.996 169.047C339.951 157.18 340.566 155.242 337.012 149.248C331.611 140.105 319.307 126.059 307.891 115.947C277.129 88.7012 236.455 71.6875 192.842 67.8125C184.707 67.0859 164.199 67.1465 156.201 67.873ZM191.064 96.209C216.084 101.719 235.156 118.672 241.514 141.074C243.496 148.037 243.564 160.994 241.719 168.018C234.746 194.961 209.248 213.912 178.076 215.365C154.287 216.455 131.045 205.92 117.988 188.18C113.477 182.004 110.537 176.131 108.486 168.926C106.436 161.6 106.436 148.4 108.486 141.074C112.861 125.695 123.184 112.799 137.813 104.383C146.357 99.418 154.014 96.875 166.797 94.8164C170.762 94.1504 185.801 94.998 191.064 96.209Z" fill="#C5C5C5"/>
<path d="M165.088 114.797C155.107 116.674 144.443 122.668 138.359 129.752C129.951 139.561 126.875 151.549 129.609 163.355C135.147 187.15 162.832 201.5 189.014 194.113C215.605 186.605 228.799 160.025 217.109 137.744C207.881 120.307 186.416 110.801 165.088 114.797Z" fill="#C5C5C5"/>
</svg>
